{"title":"The Dark Crystal [1982] x264","uid":12180028,"size":675631089,"categoryP":"video","categoryS":"movies","magnet":"?xt=urn:btih:27b4b3a83105026f9a45ee9157914fa3c06877c0&amp;dn=The+Dark+Crystal+%5B1982%5D+x264&amp;tr=udp%3A%2F%2Ftracker.openbittorrent.com%3A80&amp;tr=udp%3A%2F%2Fopen.demonii.com%3A1337&amp;tr=udp%3A%2F%2Ftracker.coppersurfer.tk%3A6969&amp;tr=udp%3A%2F%2Fexodus.desync.com%3A6969","seeders":3,"leechers":0,"uploader":null,"files":1,"time":1438416240,"description":"Format                      : MPEG-4\nFormat profile              : Base Media / Version 2\nCodec ID                    : mp42\nFile size                   : 644 MiB\nDuration                    : 1h 33mn\nOverall bit rate mode       : Variable\nOverall bit rate            : 968 Kbps\n\n\nVideo\nID                          : 1\nFormat                      : AVC\nFormat/Info                 : Advanced Video Codec\nFormat profile              : High@L3\nFormat settings, CABAC      : Yes\nFormat settings, ReFrames   : 4 frames\nCodec ID                    : avc1\nCodec ID/Info               : Advanced Video Coding\nDuration                    : 1h 33mn\nBit rate                    : 800 Kbps\nWidth                       : 720 pixels\nHeight                      : 480 pixels\nDisplay aspect ratio        : 16:9\nOriginal display aspect rat : 16:9\nFrame rate mode             : Variable\nFrame rate                  : 23.976 fps\nMinimum frame rate          : 19.978 fps\nMaximum frame rate          : 29.970 fps\nColor space                 : YUV\nChroma subsampling          : 4:2:0\nBit depth                   : 8 bits\nScan type                   : Progressive\nBits/(Pixel*Frame)          : 0.097\nStream size                 : 533 MiB (83%)\nWriting library             : x264 core 142 r2479 dd79a61\nEncoding settings           : cabac=1 / ref=3 / deblock=1:0:0 / analyse=0x3:0x113 / me=hex / subme=7 / psy=1 / psy_rd=1.00:0.00 / mixed_ref=1 / me_range=16 / chroma_me=1 / trellis=1 / 8x8dct=1 / cqm=0 / deadzone=21,11 / fast_pskip=1 / chroma_qp_offset=-2 / threads=6 / lookahead_threads=1 / sliced_threads=0 / nr=0 / decimate=1 / interlaced=0 / bluray_compat=0 / constrained_intra=0 / bframes=3 / b_pyramid=2 / b_adapt=1 / b_bias=0 / direct=1 / weightb=1 / open_gop=0 / weightp=2 / keyint=240 / keyint_min=24 / scenecut=40 / intra_refresh=0 / rc_lookahead=40 / rc=2pass / mbtree=1 / bitrate=800 / ratetol=1.0 / qcomp=0.60 / qpmin=0 / qpmax=69 \nColor range                 : Limited\nColor primaries             : BT.601 NTSC\nTransfer characteristics    : BT.709\nMatrix coefficients         : BT.601\n\nAudio\nID                          : 2\nFormat                      : AAC\nFormat/Info                 : Advanced Audio Codec\nFormat profile              : LC\nCodec ID                    : 40\nDuration                    : 1h 33mn\nBit rate mode               : Variable\nBit rate                    : 160 Kbps\nChannel(s)                  : 2 channels\nChannel positions           : Front: L R\nSampling rate               : 48.0 KHz\nCompression mode            : Lossy\nStream size                 : 107 MiB (17%)\nTitle                       : Stereo / Stereo\nLanguage                    : English\n\nText\nID                          : 3\nFormat                      : Timed Text\nMuxing mode                 : sbtl\nCodec ID                    : tx3g\nDuration                    : 1h 27mn\nBit rate mode               : Variable\nBit rate                    : 48 bps\nStream size                 : 30.8 KiB (0%)\nLanguage                    : English\n\nMenu\nID                          : 4\nCodec ID                    : text\nDuration                    : 1h 33mn\nLanguage                    : English\n00:00:00.000                : Chapter 1\n00:00:28.562                : Chapter 2\n00:04:02.576                : Chapter 3\n00:05:25.559                : Chapter 4\n00:07:00.954                : Chapter 5\n00:09:46.853                : Chapter 6\n00:14:23.396                : Chapter 7\n00:19:58.064                : Chapter 8\n00:22:05.858                : Chapter 9\n00:24:41.013                : Chapter 10\n00:29:05.110                : Chapter 11\n00:32:23.308                : Chapter 12\n00:35:14.145                : Chapter 13\n00:38:03.982                : Chapter 14\n00:42:37.088                : Chapter 15\n00:43:27.305                : Chapter 16\n00:44:32.537                : Chapter 17\n00:47:14.398                : Chapter 18\n00:50:31.762                : Chapter 19\n00:52:52.536                : Chapter 20\n00:54:59.496                : Chapter 21\n00:57:09.459                : Chapter 22\n01:00:31.628                : Chapter 23\n01:05:53.149                : Chapter 24\n01:08:17.160                : Chapter 25\n01:18:08.751                : Chapter 26\n01:19:32.468                : Chapter 27\n01:21:46.268                : Chapter 28\nBit rate mode               : VBR","torrent":{"xt":"urn:btih:27b4b3a83105026f9a45ee9157914fa3c06877c0","amp;dn":"The+Dark+Crystal+%5B1982%5D+x264","amp;tr":["udp%3A%2F%2Ftracker.openbittorrent.com%3A80","udp%3A%2F%2Fopen.demonii.com%3A1337","udp%3A%2F%2Ftracker.coppersurfer.tk%3A6969","udp%3A%2F%2Fexodus.desync.com%3A6969"],"infoHash":"27b4b3a83105026f9a45ee9157914fa3c06877c0","infoHashBuffer":{"type":"Buffer","data":[39,180,179,168,49,5,2,111,154,69,238,145,87,145,79,163,192,104,119,192]},"announce":[],"urlList":[]}}